<svg xmlns="http://www.w3.org/2000/svg" width="1200" height="900" viewBox="0 0 1200 900">
<defs>
<linearGradient id="bg" x2="1" y2="1"><stop stop-color="#020711"/><stop offset=".55" stop-color="#06182a"/><stop offset="1" stop-color="#020711"/></linearGradient>
<linearGradient id="cyan"><stop stop-color="#39cfff"/><stop offset="1" stop-color="#75e8ff"/></linearGradient>
</defs>
<rect width="1200" height="900" rx="18" fill="url(#bg)"/>
<g fill="#53d9ff" opacity=".5"><circle cx="48" cy="48" r="1.5"/><circle cx="120" cy="94" r="1"/><circle cx="210" cy="55" r="1.4"/><circle cx="1080" cy="70" r="1.4"/><circle cx="1150" cy="140" r="1"/><circle cx="1030" cy="330" r="1.2"/><circle cx="90" cy="650" r="1"/><circle cx="1110" cy="780" r="1.4"/><circle cx="250" cy="840" r="1.2"/></g>
<g fill="none" stroke="#2e8eae" stroke-width="1"><path d="M24 64V24H64M1136 24h40v40M24 836v40h40M1136 876h40v-40"/></g>

<rect x="30" y="30" width="1140" height="145" rx="12" fill="#06121f" stroke="#18516b" stroke-width="2"/>
<text x="55" y="58" fill="#62dfff" font-family="monospace" font-size="12">BLUE ROSE // PROFILE.SYSTEM</text>
<text x="55" y="105" fill="#f0fbff" font-family="sans-serif" font-size="34" font-weight="700">CAUÃ CAETANO</text>
<text x="55" y="137" fill="#68dfff" font-family="monospace" font-size="15">AUTOMAÇÃO • WEB • IA • APIs</text>
<text x="760" y="58" fill="#62dfff" font-family="monospace" font-size="11">LIVE.SIGNAL ●</text>
<text x="760" y="86" fill="#9ab6c3" font-family="monospace" font-size="11">ROLE   DEV / AUTOMATION</text>
<text x="760" y="108" fill="#9ab6c3" font-family="monospace" font-size="11">CORE   PYTHON</text>
<text x="760" y="130" fill="#9ab6c3" font-family="monospace" font-size="11">FLOW   N8N / APIs / WEBHOOKS</text>
<text x="760" y="152" fill="#9ab6c3" font-family="monospace" font-size="11">BRAND  BLUE ROSE</text>

<rect x="30" y="195" width="745" height="480" rx="12" fill="#06121f" stroke="#18516b" stroke-width="2"/>
<text x="55" y="225" fill="#62dfff" font-family="monospace" font-size="15">VISUAL.MAP / COSMIC.BUILD</text>
<text x="750" y="225" text-anchor="end" fill="#527f91" font-family="monospace" font-size="10">PARTICLE CONSTRUCTION</text>

<ellipse cx="402" cy="430" rx="235" ry="155" fill="none" stroke="#1b6f91" stroke-width="1"/>
<ellipse cx="402" cy="430" rx="180" ry="115" fill="none" stroke="#15516b" stroke-width="1" transform="rotate(55 402 430)"/>
<ellipse cx="402" cy="430" rx="150" ry="220" fill="none" stroke="#15516b" stroke-width="1" transform="rotate(-55 402 430)"/>

<g fill="#54dfff">
<circle cx="175" cy="330" r="2"><animate attributeName="cx" values="175;402;175" dur="4s" repeatCount="indefinite"/><animate attributeName="cy" values="330;420;330" dur="4s" repeatCount="indefinite"/></circle>
<circle cx="630" cy="340" r="2"><animate attributeName="cx" values="630;402;630" dur="4.7s" repeatCount="indefinite"/><animate attributeName="cy" values="340;420;340" dur="4.7s" repeatCount="indefinite"/></circle>
<circle cx="170" cy="535" r="1.5"><animate attributeName="cx" values="170;402;170" dur="4.4s" repeatCount="indefinite"/><animate attributeName="cy" values="535;420;535" dur="4.4s" repeatCount="indefinite"/></circle>
<circle cx="650" cy="540" r="1.5"><animate attributeName="cx" values="650;402;650" dur="5s" repeatCount="indefinite"/><animate attributeName="cy" values="540;420;540" dur="5s" repeatCount="indefinite"/></circle>
</g>

<g transform="translate(402 420)" fill="none" stroke="url(#cyan)" stroke-width="7" stroke-linecap="round" stroke-linejoin="round" stroke-dasharray="900" stroke-dashoffset="900">
<animate attributeName="stroke-dashoffset" values="900;0;900" dur="6s" repeatCount="indefinite"/>
<path d="M0 28C-65 5-88-60-45-105C-18-132 18-126 25-91C52-128 112-94 102-42C95-7 63 12 35 14C88 30 112 72 90 108C65 150 15 140 0 99C-15 140-65 150-90 108C-112 72-88 30-35 14C-63 12-95-7-102-42C-112-94-52-128-25-91C-18-126 18-132 45-105C88-60 65 5 0 28Z"/>
<path d="M-3-62C-43-91-20-126 10-104C38-132 75-104 61-70C48-39 15-35-3-62Z"/>
<path d="M-17 30C-62 44-75 82-45 104M17 30C62 44 75 82 45 104M0 28C-5 67 0 95 0 123"/>
</g>

<text x="402" y="610" text-anchor="middle" fill="#68dfff" font-family="monospace" font-size="12">BUILD → BLOOM → DISSOLVE → REBUILD</text>
<text x="402" y="635" text-anchor="middle" fill="#537e91" font-family="monospace" font-size="10">BLUE ROSE / PARTICLE IDENTITY</text>

<rect x="795" y="195" width="375" height="480" rx="12" fill="#06121f" stroke="#18516b" stroke-width="2"/>
<text x="820" y="225" fill="#62dfff" font-family="monospace" font-size="15">SYSTEM.INFO</text>
<g font-family="monospace" font-size="11">
<text x="820" y="265" fill="#527f91">ROLE</text><text x="920" y="265" fill="#d7edf4">DEV / AUTOMATION</text>
<text x="820" y="305" fill="#527f91">CORE</text><text x="920" y="305" fill="#d7edf4">PYTHON</text>
<text x="820" y="345" fill="#527f91">FLOW</text><text x="920" y="345" fill="#d7edf4">N8N / APIs</text>
<text x="820" y="385" fill="#527f91">WEB</text><text x="920" y="385" fill="#d7edf4">JS / HTML / CSS</text>
<text x="820" y="425" fill="#527f91">STACK</text><text x="920" y="425" fill="#d7edf4">WORDPRESS</text>
<text x="820" y="465" fill="#527f91">BRAND</text><text x="920" y="465" fill="#d7edf4">BLUE ROSE</text>
</g>
<line x1="820" y1="490" x2="1145" y2="490" stroke="#18516b"/>
<text x="820" y="520" fill="#62dfff" font-family="monospace" font-size="11">CONTRIBUTION.SIGNAL</text>
<g fill="#2ebde9">
<rect x="820" y="535" width="15" height="11" rx="2" opacity="0.1"/><rect x="844" y="535" width="15" height="11" rx="2" opacity="0.6"/><rect x="868" y="535" width="15" height="11" rx="2" opacity="0.26666666666666666"/><rect x="892" y="535" width="15" height="11" rx="2" opacity="0.7666666666666666"/><rect x="916" y="535" width="15" height="11" rx="2" opacity="0.43333333333333335"/><rect x="940" y="535" width="15" height="11" rx="2" opacity="0.1"/><rect x="964" y="535" width="15" height="11" rx="2" opacity="0.6"/><rect x="988" y="535" width="15" height="11" rx="2" opacity="0.26666666666666666"/><rect x="1012" y="535" width="15" height="11" rx="2" opacity="0.7666666666666666"/><rect x="1036" y="535" width="15" height="11" rx="2" opacity="0.43333333333333335"/><rect x="1060" y="535" width="15" height="11" rx="2" opacity="0.1"/><rect x="1084" y="535" width="15" height="11" rx="2" opacity="0.6"/><rect x="820" y="553" width="15" height="11" rx="2" opacity="0.1"/><rect x="844" y="553" width="15" height="11" rx="2" opacity="0.6"/><rect x="868" y="553" width="15" height="11" rx="2" opacity="0.26666666666666666"/><rect x="892" y="553" width="15" height="11" rx="2" opacity="0.7666666666666666"/><rect x="916" y="553" width="15" height="11" rx="2" opacity="0.43333333333333335"/><rect x="940" y="553" width="15" height="11" rx="2" opacity="0.1"/><rect x="964" y="553" width="15" height="11" rx="2" opacity="0.6"/><rect x="988" y="553" width="15" height="11" rx="2" opacity="0.26666666666666666"/><rect x="1012" y="553" width="15" height="11" rx="2" opacity="0.7666666666666666"/><rect x="1036" y="553" width="15" height="11" rx="2" opacity="0.43333333333333335"/><rect x="1060" y="553" width="15" height="11" rx="2" opacity="0.1"/><rect x="1084" y="553" width="15" height="11" rx="2" opacity="0.6"/><rect x="820" y="571" width="15" height="11" rx="2" opacity="0.1"/><rect x="844" y="571" width="15" height="11" rx="2" opacity="0.6"/><rect x="868" y="571" width="15" height="11" rx="2" opacity="0.26666666666666666"/><rect x="892" y="571" width="15" height="11" rx="2" opacity="0.7666666666666666"/><rect x="916" y="571" width="15" height="11" rx="2" opacity="0.43333333333333335"/><rect x="940" y="571" width="15" height="11" rx="2" opacity="0.1"/><rect x="964" y="571" width="15" height="11" rx="2" opacity="0.6"/><rect x="988" y="571" width="15" height="11" rx="2" opacity="0.26666666666666666"/><rect x="1012" y="571" width="15" height="11" rx="2" opacity="0.7666666666666666"/><rect x="1036" y="571" width="15" height="11" rx="2" opacity="0.43333333333333335"/><rect x="1060" y="571" width="15" height="11" rx="2" opacity="0.1"/><rect x="1084" y="571" width="15" height="11" rx="2" opacity="0.6"/><rect x="820" y="589" width="15" height="11" rx="2" opacity="0.1"/><rect x="844" y="589" width="15" height="11" rx="2" opacity="0.6"/><rect x="868" y="589" width="15" height="11" rx="2" opacity="0.26666666666666666"/><rect x="892" y="589" width="15" height="11" rx="2" opacity="0.7666666666666666"/><rect x="916" y="589" width="15" height="11" rx="2" opacity="0.43333333333333335"/><rect x="940" y="589" width="15" height="11" rx="2" opacity="0.1"/><rect x="964" y="589" width="15" height="11" rx="2" opacity="0.6"/><rect x="988" y="589" width="15" height="11" rx="2" opacity="0.26666666666666666"/><rect x="1012" y="589" width="15" height="11" rx="2" opacity="0.7666666666666666"/><rect x="1036" y="589" width="15" height="11" rx="2" opacity="0.43333333333333335"/><rect x="1060" y="589" width="15" height="11" rx="2" opacity="0.1"/><rect x="1084" y="589" width="15" height="11" rx="2" opacity="0.6"/><rect x="820" y="607" width="15" height="11" rx="2" opacity="0.1"/><rect x="844" y="607" width="15" height="11" rx="2" opacity="0.6"/><rect x="868" y="607" width="15" height="11" rx="2" opacity="0.26666666666666666"/><rect x="892" y="607" width="15" height="11" rx="2" opacity="0.7666666666666666"/><rect x="916" y="607" width="15" height="11" rx="2" opacity="0.43333333333333335"/><rect x="940" y="607" width="15" height="11" rx="2" opacity="0.1"/><rect x="964" y="607" width="15" height="11" rx="2" opacity="0.6"/><rect x="988" y="607" width="15" height="11" rx="2" opacity="0.26666666666666666"/><rect x="1012" y="607" width="15" height="11" rx="2" opacity="0.7666666666666666"/><rect x="1036" y="607" width="15" height="11" rx="2" opacity="0.43333333333333335"/><rect x="1060" y="607" width="15" height="11" rx="2" opacity="0.1"/><rect x="1084" y="607" width="15" height="11" rx="2" opacity="0.6"/><rect x="820" y="625" width="15" height="11" rx="2" opacity="0.1"/><rect x="844" y="625" width="15" height="11" rx="2" opacity="0.6"/><rect x="868" y="625" width="15" height="11" rx="2" opacity="0.26666666666666666"/><rect x="892" y="625" width="15" height="11" rx="2" opacity="0.7666666666666666"/><rect x="916" y="625" width="15" height="11" rx="2" opacity="0.43333333333333335"/><rect x="940" y="625" width="15" height="11" rx="2" opacity="0.1"/><rect x="964" y="625" width="15" height="11" rx="2" opacity="0.6"/><rect x="988" y="625" width="15" height="11" rx="2" opacity="0.26666666666666666"/><rect x="1012" y="625" width="15" height="11" rx="2" opacity="0.7666666666666666"/><rect x="1036" y="625" width="15" height="11" rx="2" opacity="0.43333333333333335"/><rect x="1060" y="625" width="15" height="11" rx="2" opacity="0.1"/><rect x="1084" y="625" width="15" height="11" rx="2" opacity="0.6"/><rect x="820" y="643" width="15" height="11" rx="2" opacity="0.1"/><rect x="844" y="643" width="15" height="11" rx="2" opacity="0.6"/><rect x="868" y="643" width="15" height="11" rx="2" opacity="0.26666666666666666"/><rect x="892" y="643" width="15" height="11" rx="2" opacity="0.7666666666666666"/><rect x="916" y="643" width="15" height="11" rx="2" opacity="0.43333333333333335"/><rect x="940" y="643" width="15" height="11" rx="2" opacity="0.1"/><rect x="964" y="643" width="15" height="11" rx="2" opacity="0.6"/><rect x="988" y="643" width="15" height="11" rx="2" opacity="0.26666666666666666"/><rect x="1012" y="643" width="15" height="11" rx="2" opacity="0.7666666666666666"/><rect x="1036" y="643" width="15" height="11" rx="2" opacity="0.43333333333333335"/><rect x="1060" y="643" width="15" height="11" rx="2" opacity="0.1"/><rect x="1084" y="643" width="15" height="11" rx="2" opacity="0.6"/>
</g>
<text x="820" y="680" fill="#527f91" font-family="monospace" font-size="10">AUTOMAÇÃO → INTEGRAÇÃO → ESCALA</text>

<rect x="30" y="700" width="1140" height="170" rx="12" fill="#06121f" stroke="#18516b" stroke-width="2"/>
<text x="55" y="730" fill="#62dfff" font-family="monospace" font-size="15">PROJECT.ARCHIVE</text>
<g font-family="monospace">
<rect x="55" y="750" width="250" height="82" rx="8" fill="#071b2a" stroke="#164d67"/><text x="72" y="780" fill="#83e7ff" font-size="12">BLUE ROSE</text><text x="72" y="804" fill="#628a9a" font-size="10">sites • automações • IA</text>
<rect x="325" y="750" width="250" height="82" rx="8" fill="#071b2a" stroke="#164d67"/><text x="342" y="780" fill="#83e7ff" font-size="12">LEAD QUALIFIER</text><text x="342" y="804" fill="#628a9a" font-size="10">n8n • WhatsApp • leads</text>
<rect x="595" y="750" width="250" height="82" rx="8" fill="#071b2a" stroke="#164d67"/><text x="612" y="780" fill="#83e7ff" font-size="12">PIX RECOVERY</text><text x="612" y="804" fill="#628a9a" font-size="10">WhatsApp • automação</text>
<rect x="865" y="750" width="280" height="82" rx="8" fill="#071b2a" stroke="#164d67"/><text x="882" y="780" fill="#83e7ff" font-size="12">AUTOMATION EXPRESS</text><text x="882" y="804" fill="#628a9a" font-size="10">portfolio • delivery</text>
</g>
</svg>